# xmcd
#
# Track frame offsets:
#	150
#	17409
#	35048
#	50503
#	66741
#	83085
#	98542
#	114083
#	129620
#	143925
#	160849
#	176488
#	191854
#	208837
#	223624
#	238932
#	256859
#	275676
#	288750
#	304692
#	320462
#
# Disc length: 4462 seconds
#
# Revision: 0
# Processed by: cddbd v1.4PL0 Copyright (c) Steve Scherf et al.
# Submitted via: audiograbber 1.80
#
DISCID=37116c15
DTITLE=Andrea Berg - Andreas Hits
DYEAR=1900
DGENRE=
TTITLE0=Du hast mich tausend mal belogen
TTITLE1=Ein Tag mit Dir im Paradies
TTITLE2=Wie ein kleines Kind
TTITLE3=Vieleicht verstehst Du mich
TTITLE4=Doch Träumen will ich nur mit Dir allein
TTITLE5=Sie ist die Frau
TTITLE6=Zwischen tausend Gefühlen
TTITLE7=Die Gefühle haben Schweigepflicht
TTITLE8=Und heute Abend geh ich tanzen
TTITLE9=Diese Nacht soll nicht enden
TTITLE10=Diese Nacht soll nie enden
TTITLE11=Geh doch, wenn Du sie liebst
TTITLE12=Und wenn der Himmel brennt
TTITLE13=Weil ich verliebt bin
TTITLE14=Damal war es Sommer
TTITLE15=Es war nur eine Nacht
TTITLE16=Wenn Du mich berührst
TTITLE17=Mach mir schöne Augen
TTITLE18=Ich will deine Sehnsucht
TTITLE19=Barfuss durch die Nacht
TTITLE20=Kilimandscharo
EXTD=
EXTT0=
EXTT1=
EXTT2=
EXTT3=
EXTT4=
EXTT5=
EXTT6=
EXTT7=
EXTT8=
EXTT9=
EXTT10=
EXTT11=
EXTT12=
EXTT13=
EXTT14=
EXTT15=
EXTT16=
EXTT17=
EXTT18=
EXTT19=
EXTT20=
PLAYORDER=
